<svg width="33" height="32" viewBox="0 0 33 32" fill="none" xmlns="http://www.w3.org/2000/svg">
<path d="M22.986 24.945C22.6553 24.945 22.3153 24.9196 21.9673 24.869L16.0313 23.9743C12.5579 23.4516 10.5886 20.665 11.1326 17.0436L12.4126 8.4837C12.9552 4.86137 15.6455 2.77741 19.1251 3.28357L19.1267 3.28437L19.1283 3.28517L25.062 4.17837C28.5353 4.70237 30.5033 7.4877 29.9593 11.109L28.6807 19.669C28.19 22.9263 25.9567 24.945 22.986 24.945Z" fill="#FF3A44"/>
<path d="M23.6602 9.93457C23.9829 9.67114 24.4578 9.6902 24.7588 9.99121L24.8154 10.0527C25.0616 10.354 25.0614 10.7884 24.8154 11.0898L24.7588 11.1523L21.9111 14L24.7588 16.8477L24.8154 16.9102C25.0615 17.2115 25.0615 17.6459 24.8154 17.9473L24.7588 18.0098C24.5988 18.1695 24.3885 18.2499 24.1787 18.25C23.9949 18.25 23.8106 18.1881 23.6602 18.0654L23.5977 18.0098L20.75 15.1621L17.9023 18.0098C17.7423 18.1697 17.5312 18.25 17.3213 18.25C17.1375 18.2499 16.9532 18.1882 16.8027 18.0654L16.7412 18.0098C16.4202 17.6887 16.4201 17.1687 16.7412 16.8477L19.5889 14L16.7412 11.1523C16.4202 10.8313 16.4202 10.3123 16.7412 9.99121L16.8027 9.93457C17.1255 9.67087 17.6012 9.6901 17.9023 9.99121L20.75 12.8389L23.5977 9.99121L23.6602 9.93457Z" fill="white" stroke="white" stroke-width="0.5"/>
<path d="M15.7313 25.9529L19.1839 26.4719C19.4617 26.5137 19.4944 26.9012 19.2275 26.9889L14.7801 28.4509C14.0815 28.6816 13.3975 28.7923 12.7415 28.7923C10.2708 28.7923 8.20149 27.2163 7.29216 24.4683L4.59216 16.2536C4.01882 14.5323 4.08682 12.8163 4.78816 11.4243C5.45882 10.0897 6.65616 9.10832 8.24949 8.58565L10.1646 7.95645C10.3113 7.90823 10.4568 8.03479 10.4339 8.18759L9.15393 16.7463C8.4446 21.4756 11.1486 25.2609 15.7313 25.9529Z" fill="#FF3A44"/>
</svg>
