<svg width="33" height="32" viewBox="0 0 33 32" fill="none" xmlns="http://www.w3.org/2000/svg">
<path d="M22.986 24.945C22.6553 24.945 22.3153 24.9196 21.9673 24.869L16.0313 23.9743C12.5579 23.4516 10.5886 20.665 11.1326 17.0436L12.4126 8.4837C12.9552 4.86137 15.6455 2.77741 19.1251 3.28357L19.1267 3.28437L19.1283 3.28517L25.062 4.17837C28.5353 4.70237 30.5033 7.4877 29.9593 11.109L28.6807 19.669C28.19 22.9263 25.9567 24.945 22.986 24.945Z" fill="#59C7FB"/>
<path d="M15.7313 25.9529L19.1839 26.4719C19.4617 26.5137 19.4944 26.9012 19.2275 26.9889L14.7801 28.4509C14.0815 28.6816 13.3975 28.7923 12.7415 28.7923C10.2708 28.7923 8.20149 27.2163 7.29216 24.4683L4.59216 16.2536C4.01882 14.5323 4.08682 12.8163 4.78816 11.4243C5.45882 10.0897 6.65616 9.10832 8.24949 8.58565L10.1646 7.95645C10.3113 7.90823 10.4568 8.03479 10.4339 8.18759L9.15393 16.7463C8.4446 21.4756 11.1486 25.2609 15.7313 25.9529Z" fill="#59C7FB"/>
<path fill-rule="evenodd" clip-rule="evenodd" d="M25.6922 11.0572C26.2129 11.5778 26.2129 12.4221 25.6922 12.9428L20.3588 18.2761C19.8381 18.7968 18.9939 18.7968 18.4732 18.2761L15.8065 15.6094C15.2858 15.0887 15.2858 14.2445 15.8065 13.7238C16.3272 13.2031 17.1715 13.2031 17.6922 13.7238L19.416 15.4477L23.8065 11.0572C24.3272 10.5365 25.1715 10.5365 25.6922 11.0572Z" fill="white"/>
</svg>
